Excellent movie by Tim Burton and Henry Selick.
Excelente película de Tim Burton y Henry Selick.
MediaInfo:
Format : Matroska
Format version : Version 2
File size : 16.8 GiB
Duration : 1 h 16 min
Overall bit rate : 31.4 Mb/s
Encoded date : UTC 2012-03-26 11:20:12
Writing application : mkvmerge v5.2.0 ('I can't explain') built on Dec 18 2011 18:12:03
Writing library : libebml v1.2.3 + libmatroska v1.3.0
Video
ID : 1
Format : AVC
Format/Info : Advanced Video Codec
Format profile : High@L4.1
Format settings, CABAC : Yes
Format settings, ReFrames : 3 frames
Format settings, GOP : M=3, N=24
Muxing mode : Container profile=Unknown@0.0
Codec ID : V_MPEG4/ISO/AVC
Duration : 1 h 16 min
Bit rate : 28.6 Mb/s
Width : 1 920 pixels
Height : 1 080 pixels
Display aspect ratio : 16:9
Frame rate : 23.976 FPS
Color space : YUV
Chroma subsampling : 4:2:0
Bit depth : 8 bits
Scan type : Progressive
Bits/(Pixel*Frame) : 0.576
Stream size : 15.3 GiB (91%)
Language : English
Default : Yes
Forced : Yes
Audio #1
ID : 2
Format : DTS
Format/Info : Digital Theater Systems
Muxing mode : Header stripping
Codec ID : A_DTS
Duration : 1 h 16 min
Bit rate mode : Constant
Bit rate : 1 510 kb/s
Channel(s) : 6 channels
Channel positions : Front: L C R, Side: L R, LFE
Sampling rate : 48.0 kHz
Bit depth : 24 bits
Compression mode : Lossy
Stream size : 828 MiB (5%)
Language : Spanish
Default : Yes
Forced : No
Audio #2
ID : 3
Format : AC-3
Format/Info : Audio Coding 3
Mode extension : CM (complete main)
Muxing mode : Header stripping
Codec ID : A_AC3
Duration : 1 h 16 min
Bit rate mode : Constant
Bit rate : 640 kb/s
Channel(s) : 6 channels
Channel positions : Front: L C R, Side: L R, LFE
Sampling rate : 48.0 kHz
Bit depth : 16 bits
Compression mode : Lossy
Stream size : 351 MiB (2%)
Language : English
Default : No
Forced : No
Text
ID : 4
Format : ASS
Codec ID : S_TEXT/ASS
Codec ID/Info : Advanced Sub Station Alpha
Compression mode : Lossless
Language : English
Default : Yes
Forced : No